<?xml version="1.0" standalone="no"?>
<!DOCTYPE svg PUBLIC "-//W3C//DTD SVG 20010904//EN"
 "http://www.w3.org/TR/2001/REC-SVG-20010904/DTD/svg10.dtd">
<svg version="1.0" xmlns="http://www.w3.org/2000/svg"
 width="1000.000000pt" height="1000.000000pt" viewBox="0 0 1000.000000 1000.000000"
 preserveAspectRatio="xMidYMid meet">
<metadata>
Created by potrace 1.14, written by Peter Selinger 2001-2017
</metadata>
<g transform="translate(0.000000,1000.000000) scale(0.100000,-0.100000)"
fill="#000000" stroke="none">
<path d="M4854 9144 c-38 -13 -77 -23 -86 -24 -10 0 -18 -4 -18 -10 0 -5 -18
-15 -40 -21 -22 -7 -40 -16 -40 -20 0 -4 -16 -16 -36 -25 -20 -9 -38 -23 -41
-31 -3 -7 -11 -13 -19 -13 -7 0 -20 -10 -28 -22 -9 -12 -16 -19 -16 -15 0 9
-145 -139 -177 -182 -13 -16 -26 -36 -29 -45 -3 -9 -12 -16 -20 -16 -8 0 -13
-3 -12 -7 2 -14 -15 -48 -29 -56 -7 -4 -13 -13 -13 -19 0 -7 -8 -21 -19 -32
-10 -12 -29 -41 -42 -66 -13 -25 -32 -55 -43 -67 -11 -13 -16 -23 -12 -23 5 0
3 -7 -4 -15 -7 -8 -9 -15 -4 -15 5 0 2 -5 -7 -10 -9 -5 -20 -22 -24 -37 -3
-15 -15 -39 -26 -54 -10 -15 -19 -33 -19 -41 0 -7 -9 -27 -19 -44 -11 -18 -21
-42 -23 -55 -2 -13 -9 -30 -15 -37 -7 -7 -18 -32 -24 -55 -6 -23 -15 -45 -20
-48 -8 -5 -14 -24 -23 -77 -1 -7 -9 -21 -17 -31 -8 -9 -15 -22 -16 -27 0 -5
-3 -24 -6 -42 -3 -18 -12 -43 -20 -55 -7 -12 -17 -42 -21 -67 -4 -24 -12 -47
-17 -51 -9 -5 -18 -42 -23 -89 -1 -8 -7 -26 -15 -38 -7 -13 -15 -36 -17 -50
-6 -33 -19 -48 -28 -33 -4 6 -18 11 -31 11 -13 0 -32 8 -42 19 -10 10 -30 21
-45 25 -15 3 -33 12 -40 19 -18 16 -101 58 -122 61 -9 1 -26 10 -37 19 -11 10
-27 18 -37 20 -9 2 -28 10 -42 19 -14 8 -37 18 -52 22 -15 3 -33 13 -42 21 -8
8 -23 15 -33 15 -10 0 -32 9 -49 19 -17 10 -45 22 -63 26 -18 4 -35 13 -38 21
-3 8 -17 14 -32 14 -14 0 -39 8 -56 18 -16 10 -45 22 -64 25 -19 4 -42 13 -50
21 -9 7 -33 16 -54 19 -20 3 -44 13 -53 21 -15 15 -34 20 -61 17 -7 -1 -30 7
-52 18 -21 11 -55 22 -74 24 -20 2 -47 11 -60 20 -13 8 -46 16 -73 18 -27 1
-65 10 -85 20 -19 10 -67 20 -107 23 -39 2 -81 10 -94 17 -13 7 -45 14 -73 16
-83 4 -318 4 -343 -1 -41 -9 -62 -17 -62 -25 0 -4 -14 -6 -30 -5 -17 1 -33 -2
-36 -7 -3 -5 -9 -7 -14 -4 -5 3 -11 1 -15 -5 -4 -6 -11 -8 -16 -5 -5 4 -9 2
-9 -4 0 -5 -13 -12 -29 -16 -16 -3 -37 -15 -46 -25 -10 -11 -21 -18 -24 -15
-12 7 -117 -99 -132 -133 -7 -17 -16 -29 -20 -26 -4 2 -9 -10 -13 -28 -3 -17
-12 -38 -18 -46 -14 -16 -17 -30 -23 -87 -2 -22 -8 -57 -13 -77 -6 -23 -6 -40
0 -46 6 -6 6 -16 0 -28 -6 -12 -6 -28 0 -44 5 -14 12 -54 14 -90 3 -36 5 -72
6 -80 1 -8 7 -20 13 -27 7 -7 16 -33 20 -59 4 -26 15 -63 26 -83 10 -20 19
-43 19 -51 0 -9 7 -25 15 -36 8 -12 16 -34 19 -49 3 -15 12 -35 19 -44 8 -9
18 -27 22 -41 4 -14 13 -32 20 -40 7 -8 18 -32 25 -52 6 -21 15 -38 20 -38 9
0 25 -39 22 -52 -1 -5 2 -8 8 -8 5 0 16 -16 25 -35 8 -20 21 -43 30 -51 8 -9
15 -21 15 -28 0 -7 9 -21 20 -31 11 -10 17 -21 15 -25 -2 -4 4 -15 15 -25 11
-10 20 -23 20 -30 0 -7 11 -25 25 -41 14 -16 25 -34 25 -40 0 -7 7 -14 15 -18
8 -3 15 -11 15 -18 0 -7 11 -26 25 -42 14 -16 25 -35 25 -43 0 -7 6 -13 14
-13 12 0 16 -7 25 -42 1 -4 17 -23 36 -42 19 -20 35 -40 35 -46 0 -5 5 -10 12
-10 6 0 8 -3 5 -7 -4 -3 1 -12 11 -19 9 -7 17 -17 17 -22 0 -6 8 -19 17 -29
30 -31 64 -72 84 -99 38 -53 118 -149 131 -157 7 -4 13 -15 13 -22 0 -8 7 -15
15 -15 8 0 15 -4 15 -10 0 -5 8 -17 18 -27 10 -10 38 -43 62 -73 58 -70 79
-94 169 -188 41 -42 74 -80 73 -84 -1 -4 7 -10 18 -13 11 -4 20 -10 20 -15 0
-12 138 -150 150 -150 6 0 10 -5 10 -11 0 -6 38 -48 85 -94 52 -51 85 -92 85
-104 0 -13 -64 -85 -180 -200 -99 -99 -180 -182 -180 -184 0 -2 -37 -42 -82
-89 -91 -94 -113 -119 -173 -193 -22 -27 -56 -67 -75 -87 -19 -21 -40 -43 -45
-50 -58 -71 -115 -141 -135 -167 -14 -18 -35 -44 -48 -58 -13 -14 -34 -42 -46
-62 -13 -20 -34 -48 -47 -62 -25 -27 -34 -40 -70 -96 -12 -18 -25 -33 -30 -33
-5 0 -9 -6 -9 -13 0 -7 -7 -22 -15 -32 -44 -55 -97 -134 -110 -162 -8 -18 -20
-33 -25 -33 -6 0 -10 -6 -10 -14 0 -8 -11 -27 -24 -43 -12 -15 -21 -33 -19
-40 2 -6 -6 -18 -18 -27 -13 -8 -24 -25 -26 -37 -2 -11 -10 -27 -18 -35 -8 -9
-15 -21 -15 -28 0 -7 -8 -21 -17 -32 -10 -10 -20 -28 -21 -39 -2 -11 -12 -29
-23 -41 -11 -11 -16 -24 -12 -27 3 -4 1 -7 -6 -7 -7 0 -9 -5 -6 -10 3 -6 -3
-23 -14 -39 -12 -16 -22 -39 -24 -50 -2 -12 -10 -30 -18 -39 -8 -9 -16 -28
-17 -41 -2 -14 -8 -36 -14 -50 -5 -14 -9 -28 -8 -30 1 -2 -4 -7 -11 -11 -6 -5
-13 -19 -14 -32 -3 -39 -16 -88 -24 -88 -4 0 -8 -6 -9 -12 0 -7 -3 -47 -6 -88
-4 -41 -11 -77 -16 -78 -6 -2 -7 -8 -4 -14 9 -14 11 -68 3 -68 -8 0 -2 -47 8
-63 3 -5 7 -34 9 -64 2 -33 12 -69 25 -89 11 -19 17 -34 14 -34 -4 0 4 -15 18
-34 15 -18 24 -36 21 -38 -6 -6 97 -106 127 -123 72 -40 148 -74 174 -78 17
-2 38 -7 47 -11 9 -4 25 -9 35 -11 10 -2 20 -4 23 -5 3 -1 8 -2 11 -2 4 1 20
-3 37 -7 17 -5 33 -7 35 -5 3 3 67 7 143 9 159 5 181 8 209 22 11 5 38 10 60
12 68 3 120 12 126 23 4 6 37 13 74 17 36 4 70 12 73 18 4 6 27 14 52 18 25 4
64 16 87 26 23 11 55 20 70 21 15 1 37 9 48 18 11 9 34 17 50 19 17 1 44 11
61 22 17 10 45 19 62 21 17 1 33 7 36 14 2 6 27 17 55 24 28 7 51 16 51 21 0
5 20 14 45 20 25 6 45 15 45 19 0 5 15 12 33 15 17 4 44 16 59 26 14 11 35 19
46 19 10 0 29 9 42 20 13 11 31 20 40 20 9 0 27 9 40 20 13 11 33 20 45 20 13
0 28 7 35 15 6 8 22 17 33 21 12 4 34 15 49 25 14 11 31 19 37 19 7 0 24 8 38
17 15 10 42 23 61 30 31 10 34 9 43 -14 5 -13 9 -30 9 -37 0 -6 5 -17 10 -22
6 -6 13 -30 16 -54 3 -24 13 -57 22 -74 9 -17 18 -46 20 -65 2 -18 12 -47 23
-65 10 -17 19 -45 19 -63 0 -17 7 -39 16 -48 9 -9 18 -30 20 -47 2 -17 13 -47
24 -65 11 -19 20 -43 20 -54 0 -12 9 -32 20 -46 11 -14 20 -34 20 -45 0 -10 9
-31 20 -46 11 -15 21 -36 23 -48 1 -12 10 -33 20 -47 9 -15 17 -32 17 -40 0
-7 9 -23 20 -35 11 -12 20 -30 20 -41 0 -11 4 -21 9 -23 10 -3 43 -57 65 -104
8 -17 22 -36 30 -44 9 -7 16 -18 16 -25 0 -7 7 -15 15 -19 8 -3 15 -12 15 -20
0 -8 11 -26 25 -40 14 -14 25 -27 25 -30 0 -14 125 -154 175 -197 22 -19 42
-36 45 -39 15 -15 90 -70 95 -70 4 0 18 -9 32 -20 14 -11 34 -20 44 -20 10 0
22 -7 27 -16 5 -9 12 -15 15 -15 12 2 61 -10 101 -25 43 -17 203 -26 212 -13
2 4 11 6 19 3 8 -3 29 2 47 11 18 9 49 18 68 21 19 3 42 12 51 20 9 8 26 16
38 17 11 1 21 6 21 11 0 5 3 6 7 3 3 -4 12 2 20 13 8 11 21 20 29 20 8 0 22 8
32 17 31 29 62 53 70 54 4 0 23 20 42 44 19 24 40 44 47 44 6 1 13 5 15 10 3
9 63 82 98 120 8 9 21 29 27 44 7 15 17 27 23 27 5 0 10 5 10 11 0 6 12 26 26
45 15 19 22 34 18 34 -5 1 1 9 13 19 12 10 25 31 29 45 4 15 13 30 20 33 8 3
14 13 14 22 0 10 8 26 19 37 10 12 22 35 26 53 4 18 13 35 20 37 7 3 16 20 19
39 4 18 13 38 21 45 8 7 15 19 15 27 0 8 11 33 23 56 13 23 23 49 22 57 -1 8
5 23 13 33 8 9 11 17 6 17 -5 0 -3 4 4 9 7 4 14 22 14 39 1 18 5 32 10 32 4 0
8 7 8 15 0 8 4 15 9 15 5 0 11 18 15 41 4 22 13 50 20 62 8 12 17 40 21 61 3
21 13 50 22 63 9 13 17 38 18 56 1 17 9 48 18 67 8 20 18 51 20 70 3 19 6 36
7 38 2 1 3 7 4 14 1 13 36 20 36 7 0 -5 3 -8 8 -8 21 4 40 -3 60 -21 12 -11
28 -20 36 -20 8 0 21 -6 28 -14 8 -7 25 -17 38 -21 14 -4 37 -16 51 -26 14
-10 29 -16 33 -12 3 3 6 1 6 -6 0 -7 5 -9 10 -6 6 3 22 -3 36 -14 15 -12 35
-21 46 -21 11 0 26 -7 34 -15 9 -8 27 -18 42 -22 15 -3 38 -14 51 -25 13 -10
34 -18 47 -18 13 0 24 -5 24 -11 0 -5 5 -7 10 -4 6 3 10 2 10 -4 0 -5 15 -12
33 -16 17 -4 43 -14 57 -23 14 -9 36 -18 49 -20 13 -2 35 -12 49 -23 14 -10
37 -19 53 -19 15 0 35 -7 43 -16 9 -8 33 -18 53 -21 21 -4 52 -15 68 -25 17
-10 43 -18 59 -18 16 0 37 -7 46 -15 10 -9 32 -18 51 -20 49 -7 60 -10 99 -28
19 -8 53 -17 75 -18 22 -2 52 -9 66 -16 25 -12 43 -16 139 -27 19 -2 49 -9 67
-14 17 -6 34 -8 37 -4 3 3 6 1 6 -5 0 -16 389 -12 416 4 12 7 36 15 55 19 47
8 49 9 91 28 21 9 40 16 44 16 10 0 105 81 151 130 39 41 48 55 41 63 -2 1 7
13 20 27 12 13 23 32 23 42 2 28 3 31 23 72 15 32 19 63 18 157 0 65 -3 122
-6 128 -4 6 -9 20 -12 31 -2 11 -6 29 -9 40 -11 43 -15 66 -17 93 -1 15 -5 27
-9 27 -7 0 -18 33 -26 75 -2 10 -9 28 -17 40 -7 11 -16 36 -20 57 -3 20 -13
39 -22 42 -8 3 -13 10 -9 15 3 5 1 12 -5 16 -5 3 -10 17 -10 31 0 14 -6 27
-14 30 -8 3 -17 21 -21 40 -3 19 -12 37 -20 40 -8 3 -17 19 -20 35 -4 16 -10
29 -15 29 -4 0 -13 15 -20 33 -7 17 -19 37 -27 43 -7 7 -16 21 -18 33 -2 12
-13 33 -24 48 -12 14 -21 32 -21 39 0 8 -5 14 -11 14 -5 0 -16 15 -24 34 -8
19 -20 36 -26 38 -7 2 -14 15 -16 28 -2 13 -12 30 -23 37 -11 8 -20 20 -20 28
0 8 -6 18 -13 22 -7 4 -29 33 -49 63 -20 30 -49 72 -64 92 -43 56 -65 87 -63
90 2 2 -19 25 -44 52 -26 27 -47 52 -47 57 0 10 -22 38 -57 75 -13 13 -23 25
-23 28 0 3 -16 21 -35 40 -19 20 -35 40 -35 45 0 6 -6 14 -13 18 -8 4 -30 29
-49 55 -20 25 -50 60 -67 77 -17 17 -31 33 -31 36 0 2 -36 41 -79 86 -44 44
-81 85 -83 90 -4 11 -169 188 -283 302 -44 44 -79 84 -78 89 2 4 -1 7 -5 5 -5
-1 -23 13 -41 32 l-32 34 118 118 c65 64 156 159 203 210 47 51 93 100 103
108 9 8 17 19 17 23 0 6 73 86 198 214 23 24 42 47 42 51 0 5 17 27 38 50 20
23 46 54 57 68 11 14 36 42 55 63 33 35 61 72 85 111 6 9 21 28 34 41 12 14
30 36 39 50 9 14 22 29 29 33 7 4 13 13 13 19 0 5 17 31 38 57 22 25 51 68 67
94 15 27 34 51 41 54 7 3 16 14 20 25 3 11 15 29 25 39 11 11 17 24 14 29 -3
5 4 15 16 23 11 8 21 22 23 30 1 9 9 24 18 34 8 10 23 33 32 51 9 17 20 32 24
32 4 0 9 10 9 22 1 13 7 24 13 26 12 4 35 51 32 65 -1 4 2 7 6 7 5 0 17 18 27
40 10 22 22 40 27 40 4 0 8 7 8 17 0 9 11 36 25 60 14 23 23 43 19 43 -3 0 6
20 20 44 14 25 26 51 26 58 0 8 9 31 19 51 11 21 18 45 17 54 -2 9 4 25 12 34
17 19 20 31 26 95 2 23 9 51 15 61 17 34 23 83 23 198 -1 80 -5 118 -16 140
-9 17 -19 47 -22 68 -4 20 -10 37 -14 37 -4 0 -13 14 -20 31 -13 31 -132 159
-147 159 -5 0 -16 9 -26 20 -9 11 -25 20 -36 20 -10 0 -24 6 -30 14 -11 13
-53 28 -91 31 -8 1 -23 5 -32 8 -73 28 -64 27 -228 27 -172 -1 -259 -7 -270
-22 -3 -4 -31 -9 -61 -12 -88 -9 -134 -17 -139 -26 -3 -4 -27 -11 -55 -15 -92
-12 -98 -14 -106 -27 -5 -7 -21 -13 -36 -14 -16 0 -34 -4 -41 -8 -8 -4 -16 -5
-19 -2 -4 3 -15 -2 -26 -11 -10 -10 -24 -18 -30 -19 -7 0 -24 -2 -39 -2 -15
-1 -34 -9 -42 -18 -9 -8 -16 -12 -16 -8 0 5 -5 3 -12 -4 -7 -7 -24 -12 -39
-12 -15 0 -34 -7 -43 -15 -8 -8 -30 -18 -48 -22 -18 -3 -49 -14 -68 -24 -19
-10 -46 -20 -59 -21 -14 -2 -33 -11 -43 -20 -10 -10 -28 -18 -40 -18 -12 0
-29 -7 -38 -15 -10 -9 -30 -18 -46 -21 -16 -3 -36 -12 -46 -20 -9 -9 -22 -17
-30 -19 -36 -9 -58 -18 -58 -25 0 -5 -15 -12 -32 -16 -18 -3 -44 -15 -57 -25
-13 -10 -27 -16 -31 -14 -5 3 -11 1 -15 -5 -4 -6 -10 -8 -14 -5 -5 2 -16 -4
-26 -15 -10 -11 -26 -20 -35 -20 -9 0 -27 -9 -40 -20 -13 -11 -31 -20 -40 -20
-10 0 -23 -7 -30 -15 -16 -20 -79 -36 -98 -26 -8 5 -17 26 -19 47 -2 21 -11
52 -19 69 -12 26 -18 57 -23 117 -1 4 -8 14 -16 22 -9 9 -17 30 -19 48 -4 38
-16 70 -28 79 -5 3 -10 22 -11 42 -1 20 -4 37 -7 37 -11 0 -30 42 -36 77 -3
21 -12 42 -20 46 -8 4 -14 18 -14 30 0 12 -12 47 -26 77 -14 30 -33 71 -42 90
-9 19 -21 38 -25 41 -5 3 -9 10 -8 15 0 14 -48 112 -59 119 -6 3 -10 13 -10
22 0 9 -6 21 -14 27 -8 6 -16 20 -18 31 -2 11 -13 30 -25 43 -13 13 -23 29
-23 36 0 7 -9 21 -20 31 -11 10 -20 24 -20 31 0 7 -6 17 -14 21 -8 4 -16 14
-18 22 -2 7 -12 23 -23 36 -11 12 -31 36 -45 54 -31 42 -192 201 -202 201 -4
0 -18 10 -30 23 -13 12 -30 23 -38 25 -8 2 -17 8 -20 12 -3 5 -24 17 -45 26
-22 9 -43 21 -46 26 -3 5 -21 12 -40 15 -19 3 -50 12 -69 20 -59 26 -213 24
-296 -3z m255 -238 c24 -3 51 -12 60 -20 9 -8 25 -16 36 -18 11 -1 22 -6 25
-9 3 -3 33 -26 67 -51 34 -25 59 -48 56 -52 -4 -3 -1 -6 5 -6 11 0 92 -80 92
-91 0 -4 18 -26 40 -50 22 -24 40 -50 40 -56 0 -7 4 -13 9 -13 5 0 16 -15 25
-34 8 -18 22 -39 31 -46 8 -7 15 -19 15 -27 0 -7 9 -23 20 -35 11 -12 20 -29
20 -39 0 -9 6 -19 14 -22 7 -3 17 -18 20 -34 4 -15 14 -35 22 -44 8 -9 17 -27
19 -39 3 -13 10 -27 17 -32 7 -4 10 -8 5 -8 -4 0 0 -11 9 -25 9 -14 13 -25 9
-25 -5 0 -1 -8 7 -17 16 -20 27 -46 34 -81 3 -13 11 -34 18 -45 8 -12 17 -35
21 -52 3 -16 12 -36 18 -43 12 -15 16 -31 20 -78 1 -18 5 -30 9 -28 7 5 27
-47 35 -90 2 -16 11 -40 20 -52 8 -13 12 -28 8 -34 -3 -5 -2 -10 3 -10 5 0 8
-10 7 -22 -2 -24 14 -68 24 -68 4 0 7 -8 8 -17 1 -10 4 -34 8 -53 15 -81 13
-98 -12 -111 -12 -7 -23 -16 -23 -20 0 -4 -14 -10 -31 -14 -17 -4 -33 -13 -36
-21 -3 -8 -11 -14 -18 -14 -7 0 -24 -9 -39 -21 -15 -11 -33 -22 -41 -23 -8 -1
-26 -12 -40 -24 -14 -12 -31 -22 -39 -22 -7 0 -21 -9 -31 -20 -10 -11 -21 -17
-25 -15 -4 3 -14 -2 -21 -11 -12 -15 -58 -38 -68 -34 -2 1 -8 -5 -13 -14 -5
-9 -25 -23 -44 -31 -18 -8 -34 -19 -34 -24 0 -6 -9 -11 -20 -11 -11 0 -20 -5
-20 -11 0 -5 -15 -16 -33 -24 -19 -8 -39 -21 -47 -29 -7 -9 -17 -16 -22 -16
-5 0 -18 -9 -30 -20 -12 -10 -24 -17 -29 -15 -4 3 -13 0 -21 -7 -28 -27 -87
-68 -97 -68 -6 0 -11 -5 -11 -12 0 -6 -3 -9 -6 -5 -3 3 -14 -2 -23 -11 -35
-34 -74 -61 -82 -57 -3 3 -12 -2 -19 -10 -14 -17 -50 -20 -50 -5 0 6 -6 10
-13 10 -7 0 -19 9 -27 20 -8 11 -22 20 -32 20 -10 0 -26 9 -35 20 -10 11 -23
20 -30 20 -7 0 -13 4 -13 8 0 5 -17 17 -37 28 -21 10 -42 25 -46 32 -4 6 -14
12 -20 12 -7 0 -19 9 -27 20 -8 11 -22 20 -30 20 -9 0 -25 8 -36 19 -11 10
-30 22 -42 25 -12 4 -22 11 -22 17 0 5 -15 16 -32 24 -61 29 -99 51 -106 61
-4 5 -18 15 -32 22 -64 33 -86 46 -95 59 -6 8 -17 15 -26 16 -8 2 -29 12 -45
24 -17 13 -34 20 -37 17 -3 -3 -12 3 -19 15 -7 12 -21 21 -31 21 -9 0 -25 9
-34 20 -10 11 -25 20 -35 20 -10 0 -26 8 -36 18 -10 9 -27 22 -38 28 -23 14
-21 59 7 123 10 24 19 57 19 73 0 16 7 40 16 53 8 13 17 37 20 52 2 15 5 37 7
48 1 11 10 31 19 45 9 14 18 41 21 62 2 20 12 47 21 59 9 13 16 36 16 51 0 14
7 33 15 42 8 8 18 30 22 48 3 18 16 52 29 75 12 22 20 44 17 47 -3 3 4 17 16
32 11 15 21 33 21 41 0 8 9 26 20 40 11 14 20 32 20 40 0 8 9 26 20 40 11 14
20 33 20 43 0 9 9 25 20 35 11 10 17 21 15 25 -2 4 4 15 15 25 11 10 20 24 20
32 0 8 11 25 25 39 13 13 25 28 25 32 0 4 6 14 14 23 7 9 15 21 17 27 9 24
189 218 189 203 0 -3 6 1 13 10 14 18 58 44 70 41 4 -1 7 5 7 13 0 9 9 15 22
15 12 0 29 7 39 16 10 9 32 17 49 19 17 1 32 4 35 6 5 6 128 3 184 -5z m-3054
-1070 c144 -11 160 -13 188 -25 15 -6 40 -13 55 -15 15 -2 46 -7 70 -11 23 -4
42 -11 42 -16 0 -5 3 -8 8 -8 4 1 9 0 12 -1 13 -5 48 -10 73 -12 15 0 27 -5
27 -10 0 -5 4 -7 9 -4 5 4 11 1 13 -4 3 -10 14 -13 85 -23 12 -2 30 -10 40
-18 10 -8 31 -16 48 -18 16 -2 41 -11 55 -20 14 -10 38 -18 53 -19 16 -1 35
-9 43 -17 9 -8 18 -15 22 -16 4 0 16 -3 27 -5 11 -3 26 -6 33 -6 6 -1 12 -4
12 -8 0 -10 48 -30 70 -30 11 0 20 -4 20 -10 0 -5 7 -10 15 -10 8 0 15 -5 15
-11 0 -5 4 -8 9 -5 4 3 30 -5 57 -19 27 -13 55 -25 63 -27 8 -2 23 -9 32 -17
10 -8 28 -16 41 -18 12 -2 32 -12 43 -23 12 -11 30 -20 42 -20 11 0 28 -9 38
-20 9 -10 20 -19 24 -18 25 3 51 -4 46 -12 -3 -5 1 -10 9 -10 9 0 16 -5 16
-11 0 -7 10 -9 24 -7 18 4 27 -1 36 -16 6 -12 19 -22 28 -23 10 -1 36 -14 59
-29 39 -25 41 -29 37 -63 -3 -20 -6 -49 -8 -66 -2 -16 -10 -46 -18 -65 -8 -19
-15 -54 -16 -76 -4 -72 -11 -107 -21 -113 -5 -4 -12 -42 -16 -86 -9 -123 -19
-187 -31 -206 -4 -6 -8 -32 -10 -58 -11 -139 -22 -226 -31 -251 -7 -17 -8 -41
-13 -180 -2 -52 -9 -106 -15 -120 -7 -14 -9 -36 -5 -50 4 -14 3 -36 -2 -49 -5
-13 -11 -95 -14 -182 -6 -173 -7 -175 -76 -223 -32 -22 -78 -64 -204 -183 -59
-57 -113 -103 -121 -103 -13 0 -383 362 -383 375 0 3 -33 38 -72 79 -92 93
-182 193 -245 272 -27 34 -55 68 -63 76 -8 9 -31 34 -50 58 -19 23 -43 51 -52
61 -10 10 -18 21 -18 25 0 3 -13 19 -30 37 -16 18 -30 38 -30 45 0 6 -6 12
-14 12 -8 0 -18 9 -21 21 -4 12 -14 28 -22 37 -37 42 -63 78 -63 87 0 6 -9 16
-20 23 -11 7 -20 17 -20 23 0 5 -9 19 -20 31 -11 12 -20 28 -20 35 0 7 -9 17
-20 23 -11 6 -20 20 -20 30 0 11 -6 20 -14 20 -8 0 -17 13 -21 30 -4 16 -12
33 -19 37 -12 8 -41 51 -46 68 -1 6 -14 28 -29 50 -35 53 -49 75 -63 105 -7
14 -18 31 -25 37 -6 7 -17 29 -23 48 -6 19 -15 35 -20 35 -4 0 -11 16 -14 36
-4 19 -13 37 -21 40 -7 3 -16 22 -20 42 -4 20 -11 40 -17 43 -10 7 -30 73 -29
102 0 9 -4 15 -9 12 -8 -5 -13 10 -26 90 -4 22 -11 48 -16 58 -19 36 -27 144
-13 166 3 6 2 11 -3 11 -13 0 2 77 22 115 9 17 16 36 16 43 0 6 7 12 17 12 9
0 14 3 10 6 -8 9 52 56 103 81 28 14 71 24 113 26 37 2 71 8 75 11 4 4 36 5
72 3 36 -3 101 -8 145 -11z m6119 7 c6 -7 30 -9 123 -12 17 -1 38 -8 46 -16 8
-8 17 -11 21 -8 3 4 6 1 6 -5 0 -7 8 -12 18 -12 10 0 36 -16 58 -35 21 -19 35
-35 31 -35 -5 0 2 -14 15 -32 12 -18 24 -44 25 -58 5 -57 4 -119 -2 -129 -3
-6 -1 -11 5 -11 6 0 9 -4 6 -8 -3 -5 -7 -38 -10 -74 -2 -36 -12 -82 -21 -104
-9 -21 -18 -50 -20 -64 -4 -40 -15 -70 -27 -70 -5 0 -8 -7 -4 -15 3 -8 2 -15
-2 -15 -4 0 -9 -12 -10 -27 -1 -14 -9 -34 -18 -44 -8 -9 -16 -26 -17 -38 -1
-11 -5 -21 -9 -21 -9 0 -28 -35 -33 -62 -3 -12 -14 -31 -25 -43 -11 -12 -17
-24 -14 -27 3 -4 -6 -23 -20 -44 -14 -20 -23 -41 -20 -46 3 -4 0 -8 -6 -8 -6
0 -20 -20 -31 -45 -11 -25 -24 -43 -29 -40 -4 3 -11 -9 -15 -26 -4 -17 -13
-33 -21 -36 -8 -3 -14 -12 -14 -20 0 -7 -11 -26 -25 -41 -14 -15 -25 -32 -25
-39 0 -7 -4 -13 -9 -13 -5 0 -16 -16 -25 -35 -9 -19 -21 -35 -26 -35 -6 0 -10
-7 -10 -15 0 -7 -6 -18 -14 -22 -7 -4 -19 -19 -26 -33 -7 -14 -19 -32 -27 -40
-7 -8 -37 -46 -66 -85 -28 -38 -55 -71 -59 -73 -5 -2 -8 -8 -8 -14 0 -6 -10
-21 -22 -33 -32 -32 -99 -111 -128 -154 -14 -19 -40 -50 -57 -69 -18 -18 -33
-37 -33 -42 0 -5 -9 -12 -20 -15 -11 -3 -20 -11 -20 -17 0 -9 -20 -33 -95
-113 -11 -12 -42 -47 -69 -79 -27 -32 -73 -82 -103 -112 -29 -30 -53 -59 -53
-64 0 -6 -6 -10 -14 -10 -8 0 -18 -9 -21 -20 -3 -11 -12 -20 -18 -20 -7 -1
-25 -19 -42 -40 -16 -21 -34 -40 -40 -40 -5 -1 -32 -28 -60 -60 -27 -32 -54
-59 -59 -59 -4 -1 -17 -12 -28 -26 -25 -32 -43 -32 -77 3 -15 15 -31 28 -35
28 -5 1 -42 34 -83 73 -40 39 -78 71 -83 71 -5 0 -12 9 -15 20 -3 11 -10 20
-14 20 -5 0 -34 24 -65 54 -50 49 -58 61 -67 113 -6 32 -12 97 -13 144 -2 47
-6 91 -10 97 -3 6 -1 14 5 18 8 4 7 9 -2 15 -9 5 -10 9 -3 9 8 0 10 11 5 33
-3 17 -6 56 -6 85 1 28 -2 52 -5 52 -3 0 -5 15 -5 33 1 17 -1 37 -4 42 -3 6
-6 13 -7 18 -1 4 -2 8 -4 10 -1 1 -3 29 -5 62 -2 33 -6 101 -9 152 -3 50 -11
104 -17 120 -6 15 -13 53 -15 83 -4 79 -15 142 -25 163 -6 9 -12 48 -15 85 -6
75 -11 116 -14 120 -1 1 -3 5 -4 10 -1 4 -4 12 -8 18 -4 6 -10 33 -13 60 -11
96 -17 129 -25 139 -15 19 -18 74 -6 84 7 6 15 9 18 6 3 -3 13 4 23 15 10 11
23 20 29 20 6 0 32 11 59 25 26 14 47 22 47 18 1 -5 10 3 20 16 11 13 20 21
20 18 0 -3 27 8 61 24 33 16 64 27 70 24 5 -4 9 -2 9 4 0 12 80 55 80 44 0 -5
5 -1 10 8 5 9 26 20 45 23 19 4 35 11 35 16 0 8 57 25 63 18 1 -2 15 7 31 20
16 12 35 22 44 22 8 0 29 9 46 19 17 11 43 22 58 25 14 2 37 11 50 19 12 8 40
18 61 21 20 4 37 11 37 16 0 6 7 10 15 10 8 0 15 4 15 9 0 5 8 7 18 5 9 -3 35
4 57 16 21 11 48 20 58 20 10 0 37 9 60 19 24 11 61 22 82 24 22 3 57 12 77
21 21 9 53 16 72 16 19 0 37 4 41 10 3 5 13 6 21 3 9 -3 19 -1 23 5 8 13 74
23 186 26 47 2 88 6 92 9 9 9 118 9 127 0z m-4194 -768 c4 3 10 -1 13 -8 3 -8
20 -22 39 -31 18 -10 51 -28 73 -42 22 -13 51 -29 65 -36 14 -7 27 -16 30 -19
6 -8 64 -43 100 -61 14 -7 34 -21 44 -30 11 -10 23 -18 28 -18 5 0 31 -16 59
-35 27 -20 61 -40 75 -45 13 -5 24 -14 24 -20 0 -5 7 -10 15 -10 8 0 23 -9 32
-20 10 -11 23 -20 29 -20 7 0 26 -11 42 -25 17 -14 35 -25 41 -25 7 0 14 -6
17 -14 3 -8 18 -18 34 -21 33 -7 49 -52 21 -63 -9 -3 -22 -14 -29 -24 -7 -10
-20 -18 -28 -18 -8 0 -14 -5 -14 -10 0 -6 -8 -14 -17 -17 -10 -4 -31 -17 -48
-30 -16 -12 -41 -31 -54 -40 -13 -10 -32 -26 -42 -35 -11 -10 -23 -18 -27 -18
-5 0 -18 -8 -30 -17 -11 -10 -35 -29 -53 -43 -18 -14 -43 -35 -56 -47 -13 -13
-26 -23 -28 -22 -8 0 -54 -33 -80 -58 -13 -13 -28 -23 -34 -23 -5 0 -12 -9
-16 -20 -3 -11 -9 -19 -13 -17 -9 2 -50 -27 -107 -76 -24 -21 -47 -38 -50 -37
-4 1 -14 -7 -23 -17 -9 -11 -35 -32 -57 -49 -22 -16 -45 -33 -51 -39 -52 -47
-73 -63 -76 -59 -3 2 -11 -7 -18 -21 -7 -14 -19 -25 -27 -25 -7 0 -13 -5 -13
-11 0 -6 -5 -9 -12 -7 -8 3 -11 23 -9 59 2 30 5 90 7 134 3 80 10 142 20 180
3 11 7 49 9 85 10 150 15 201 21 212 4 6 8 21 10 32 7 53 14 125 18 171 3 28
9 62 15 77 9 24 16 69 27 178 1 14 2 26 3 28 1 1 1 4 1 7 0 3 6 18 13 33 8 15
15 49 16 77 3 63 6 66 37 55 14 -6 29 -8 34 -5z m2115 -32 c7 -23 10 -45 7
-48 -3 -3 -1 -5 4 -5 6 0 11 -10 11 -22 4 -64 14 -132 22 -147 12 -21 22 -88
26 -172 2 -36 10 -82 19 -102 8 -21 13 -37 10 -37 -3 0 0 -8 5 -18 5 -10 6
-24 1 -32 -5 -8 -5 -21 0 -30 6 -11 5 -21 -2 -28 -7 -7 -8 -12 -2 -12 6 0 10
-10 10 -22 1 -44 14 -140 21 -151 4 -6 7 -23 8 -37 1 -14 5 -31 9 -38 4 -7 2
-12 -4 -12 -6 0 -8 -5 -4 -12 4 -6 8 -66 10 -134 1 -67 7 -131 12 -141 24 -46
-7 -93 -39 -60 -8 8 -26 20 -39 27 -14 7 -31 21 -38 32 -7 10 -20 18 -28 18
-8 0 -14 7 -14 15 0 8 -4 15 -8 15 -5 0 -17 8 -28 18 -10 10 -35 28 -54 42
-36 24 -116 89 -157 125 -37 33 -48 42 -73 55 -12 7 -38 28 -57 46 -18 19 -38
34 -43 34 -5 0 -15 8 -22 18 -7 9 -25 23 -40 29 -16 7 -28 17 -28 23 0 5 -5
10 -10 10 -6 0 -35 20 -66 45 -30 25 -61 45 -69 45 -8 0 -15 6 -15 14 0 8 -11
17 -25 20 -14 4 -25 13 -25 21 0 8 -6 15 -14 15 -7 0 -25 11 -39 24 -15 14
-36 27 -47 31 -11 3 -20 11 -20 16 0 5 -7 9 -15 9 -22 0 -18 30 7 51 11 11 25
19 29 19 4 0 15 8 25 18 10 9 20 17 23 17 8 1 72 41 96 61 33 26 149 98 163
100 8 1 19 10 26 19 12 16 38 33 91 58 17 8 36 21 44 30 7 9 16 15 20 12 4 -2
20 7 36 21 15 13 37 24 47 24 11 0 17 4 14 9 -3 5 12 16 34 25 22 9 40 20 40
25 0 5 12 12 27 16 15 3 30 10 33 13 12 16 56 41 69 39 8 -1 19 -21 26 -44z
m-1036 -670 c38 -34 70 -58 80 -58 5 0 18 -8 28 -18 37 -37 78 -67 91 -67 6 0
12 -4 12 -9 0 -5 15 -18 33 -30 69 -44 173 -122 190 -142 9 -12 17 -18 17 -15
0 3 26 -14 58 -39 31 -25 62 -49 67 -53 6 -4 37 -30 71 -57 33 -28 71 -57 84
-65 12 -8 35 -26 50 -40 15 -14 38 -32 50 -40 12 -8 32 -24 44 -35 12 -11 37
-31 56 -45 35 -26 82 -67 132 -112 17 -16 34 -28 39 -28 5 0 9 -7 9 -15 0 -8
5 -15 11 -15 6 0 21 -9 33 -20 11 -10 32 -28 46 -39 l25 -19 0 -422 0 -422
-25 -19 c-14 -11 -33 -27 -43 -35 -9 -7 -19 -14 -21 -14 -2 0 -20 -15 -39 -32
-60 -58 -148 -133 -160 -137 -7 -2 -20 -13 -29 -24 -10 -11 -18 -18 -18 -15 0
3 -17 -11 -39 -31 -21 -20 -53 -47 -71 -61 -19 -14 -39 -31 -46 -37 -7 -7 -16
-13 -19 -13 -9 0 -129 -100 -133 -111 -2 -5 -9 -9 -16 -9 -7 0 -25 -10 -39
-22 -48 -43 -79 -68 -82 -68 -2 0 -21 -16 -42 -35 -21 -19 -43 -35 -49 -35 -6
0 -23 -12 -38 -26 -14 -15 -26 -24 -26 -20 0 4 -11 -4 -25 -16 -58 -52 -65
-58 -69 -55 -3 1 -18 -8 -33 -21 -79 -64 -200 -147 -213 -146 -8 1 -22 2 -30
3 -8 0 -31 16 -50 34 -19 17 -42 37 -51 42 -44 27 -97 65 -122 89 -15 14 -33
26 -38 26 -5 0 -21 11 -34 25 -14 13 -25 22 -25 19 0 -3 -15 6 -32 21 -18 14
-43 34 -56 43 -13 9 -31 25 -39 34 -9 9 -20 15 -25 12 -4 -3 -8 0 -8 5 0 6 -5
11 -10 11 -6 0 -26 16 -46 35 -19 19 -38 35 -42 35 -4 0 -18 12 -31 25 -13 14
-27 25 -32 25 -5 0 -17 8 -28 18 -10 9 -30 26 -45 37 -14 11 -36 29 -49 40
-13 11 -36 30 -50 42 -14 12 -28 19 -30 16 -3 -2 -10 5 -17 16 -6 12 -20 21
-30 21 -11 0 -20 5 -20 11 0 6 -7 17 -15 25 -8 9 -15 13 -15 10 0 -3 -18 11
-39 32 -57 53 -92 82 -101 82 -4 0 -35 26 -69 58 -33 31 -67 62 -73 68 -45 40
-44 28 -43 446 0 388 0 397 21 420 37 41 159 150 169 152 6 1 20 10 31 21 11
11 42 38 68 60 26 22 55 47 64 56 10 9 44 36 77 60 73 53 90 67 117 97 12 12
30 22 40 22 11 0 17 4 13 9 -3 6 10 17 30 27 19 9 35 23 35 32 0 8 3 13 6 9 3
-3 15 3 27 13 12 10 36 30 52 44 17 14 36 26 43 26 7 0 11 4 7 9 -3 5 3 12 14
16 10 3 30 16 44 28 53 45 88 72 93 70 2 -2 12 4 22 12 55 49 130 103 136 98
3 -4 6 -1 6 4 0 6 20 24 44 39 25 16 42 32 40 36 -3 4 2 8 10 8 8 0 21 6 28
13 30 30 73 30 107 0z m-1588 -1232 c1 -9 0 -20 -1 -26 -3 -18 -1 -239 3 -268
4 -25 2 -28 -18 -23 -13 3 -60 42 -105 86 l-82 81 89 88 c84 84 112 99 114 62z
m3121 -3 c119 -109 138 -129 138 -146 0 -21 -61 -87 -120 -131 -19 -14 -40
-33 -47 -41 -6 -8 -15 -11 -19 -7 -13 13 -12 357 1 357 6 0 27 -15 47 -32z
m-3385 -423 c54 -53 112 -106 130 -118 18 -12 38 -32 44 -44 7 -12 16 -20 21
-17 4 3 8 0 8 -5 0 -6 7 -11 16 -11 9 0 18 -9 21 -20 3 -11 9 -18 13 -15 18
11 29 -26 31 -105 1 -47 6 -91 12 -97 6 -9 6 -13 -1 -13 -6 0 -10 -9 -9 -20 1
-11 5 -20 10 -20 5 0 4 -7 -3 -15 -6 -8 -8 -19 -5 -26 4 -6 9 -44 10 -85 1
-40 6 -79 12 -86 5 -7 11 -53 12 -103 4 -139 18 -265 30 -265 3 0 8 -37 9 -82
6 -130 7 -142 14 -154 12 -19 23 -84 32 -189 7 -75 15 -118 25 -125 4 -3 8
-27 10 -54 3 -60 6 -73 21 -111 7 -16 14 -46 16 -65 2 -19 5 -51 7 -72 4 -33
1 -38 -34 -61 -21 -14 -49 -29 -61 -33 -12 -3 -28 -13 -36 -20 -7 -8 -21 -14
-30 -14 -8 0 -25 -9 -36 -19 -12 -11 -32 -21 -46 -23 -14 -1 -31 -10 -37 -19
-7 -9 -28 -20 -48 -23 -19 -4 -35 -11 -35 -16 0 -5 -12 -12 -27 -16 -16 -4
-39 -14 -53 -22 -14 -9 -27 -17 -30 -17 -20 -3 -56 -20 -68 -31 -7 -8 -23 -14
-34 -14 -12 0 -29 -7 -39 -16 -9 -8 -26 -17 -36 -19 -10 -2 -19 -4 -20 -5 -2
-2 -6 -3 -10 -4 -5 -1 -21 -9 -38 -18 -16 -9 -41 -18 -55 -19 -14 -2 -34 -12
-44 -21 -11 -10 -30 -19 -43 -19 -40 -2 -44 -4 -52 -17 -4 -7 -21 -15 -37 -17
-16 -2 -30 -4 -31 -6 -2 -1 -8 -2 -13 -3 -6 0 -14 -5 -18 -11 -7 -11 -18 -14
-67 -22 -16 -3 -46 -12 -65 -20 -19 -9 -48 -18 -64 -20 -16 -3 -51 -13 -78
-24 -26 -10 -52 -18 -56 -17 -17 4 -102 -14 -102 -22 0 -5 -8 -9 -17 -8 -10 0
-36 -2 -58 -6 -22 -3 -85 -8 -139 -11 -55 -2 -103 -9 -106 -15 -5 -7 -15 -8
-33 -1 -14 5 -34 10 -44 10 -76 1 -163 15 -192 32 -18 11 -36 18 -38 15 -3 -3
-27 16 -53 42 -49 49 -81 105 -86 157 -8 72 -9 117 -2 121 4 3 5 18 1 34 -3
19 0 38 10 54 9 13 18 46 21 72 5 54 15 86 28 95 5 3 10 22 11 42 1 20 6 37
10 37 5 0 6 4 3 9 -3 4 3 16 14 26 11 10 17 22 14 26 -3 5 -1 9 4 9 6 0 8 8 6
18 -3 9 4 27 15 39 12 12 21 28 21 35 0 7 9 26 19 42 11 17 18 33 16 36 -2 4
4 16 13 26 10 10 24 33 31 51 7 17 19 34 28 37 8 3 11 10 8 16 -4 6 5 24 19
41 14 17 26 34 26 39 0 13 53 90 62 90 4 0 7 3 6 8 -4 10 35 72 45 72 4 0 5 4
2 10 -3 5 3 15 15 22 11 7 20 19 20 26 0 7 11 24 24 37 13 13 22 25 20 27 -2
2 10 20 27 39 42 49 49 57 49 64 0 8 162 213 204 258 20 21 36 42 36 46 0 3 8
13 18 22 9 8 28 30 42 48 13 18 33 43 45 55 11 13 39 45 63 72 173 198 592
623 614 624 9 0 61 -43 115 -95z m3766 60 c21 -20 37 -41 37 -47 0 -6 2 -9 5
-6 7 6 155 -140 155 -153 0 -6 4 -8 9 -5 5 3 20 -9 34 -27 14 -17 61 -69 105
-114 44 -46 83 -92 87 -103 4 -11 10 -18 15 -15 5 3 11 -4 15 -15 3 -11 12
-20 19 -20 7 0 17 -9 22 -19 5 -11 34 -46 64 -78 93 -101 124 -137 147 -171
13 -18 33 -44 45 -58 48 -52 91 -104 128 -154 14 -18 31 -39 38 -46 6 -7 12
-17 12 -21 0 -5 11 -19 25 -31 14 -13 23 -27 20 -32 -3 -5 4 -11 15 -15 11 -3
20 -13 20 -21 0 -8 9 -23 20 -34 11 -11 20 -23 20 -26 0 -3 11 -20 25 -36 14
-16 23 -34 19 -39 -3 -5 -1 -9 5 -9 6 0 28 -28 50 -62 22 -35 46 -71 55 -80 9
-10 15 -20 14 -23 -2 -2 5 -14 15 -25 9 -11 17 -25 17 -31 0 -6 11 -25 25 -41
14 -16 23 -34 19 -39 -3 -5 -1 -9 5 -9 6 0 17 -13 26 -30 9 -16 13 -30 10 -30
-3 0 6 -17 19 -37 14 -21 26 -47 28 -58 2 -11 9 -25 16 -30 7 -6 15 -17 17
-25 9 -40 18 -59 26 -54 9 5 10 2 13 -47 0 -15 9 -35 18 -46 9 -10 19 -34 21
-53 2 -19 11 -50 21 -68 9 -18 18 -60 21 -95 2 -34 4 -63 5 -64 6 -8 5 -31 -2
-50 -5 -15 -4 -23 3 -23 8 0 7 -5 -1 -15 -8 -10 -9 -15 -2 -15 6 0 9 -6 7 -12
-3 -7 -6 -31 -8 -54 -2 -22 -13 -54 -25 -71 -12 -17 -22 -35 -22 -40 0 -12
-66 -62 -87 -66 -10 -1 -29 -10 -43 -19 -14 -9 -52 -19 -85 -22 -33 -3 -88 -9
-122 -12 -34 -4 -70 -3 -80 1 -10 4 -56 9 -103 11 -106 4 -155 10 -180 24 -11
6 -20 7 -20 3 0 -4 -5 -2 -12 5 -7 7 -29 12 -49 12 -21 0 -57 9 -82 19 -25 11
-62 21 -83 22 -22 2 -52 11 -69 20 -16 10 -43 19 -60 21 -16 2 -44 11 -61 20
-17 9 -42 18 -56 20 -14 2 -36 11 -50 20 -13 9 -39 18 -56 21 -17 3 -41 12
-54 21 -12 9 -32 16 -44 16 -12 0 -33 9 -47 20 -14 11 -37 20 -51 20 -15 0
-31 8 -38 20 -8 13 -24 20 -44 20 -17 0 -37 7 -44 15 -7 9 -32 20 -56 26 -24
6 -42 15 -39 19 4 7 -41 25 -56 22 -4 -1 -15 8 -24 18 -10 11 -27 20 -37 20
-11 0 -26 7 -35 15 -8 9 -28 19 -44 22 -15 3 -36 14 -45 24 -9 11 -27 19 -39
19 -12 0 -30 9 -40 20 -10 11 -29 20 -42 20 -12 0 -23 4 -23 9 0 5 -13 14 -30
21 -16 7 -31 16 -31 21 -1 5 -2 15 -3 22 -2 6 3 27 10 45 13 31 16 48 29 157
3 27 11 52 16 56 5 3 11 27 12 52 1 26 4 47 7 47 3 0 6 24 7 54 1 29 7 66 14
82 11 30 14 50 23 164 3 36 10 79 16 95 11 29 15 68 24 243 3 46 9 89 14 95 5
7 8 27 7 45 0 17 2 32 5 32 4 0 7 24 7 53 1 28 3 69 5 90 2 21 0 41 -4 44 -5
2 -5 10 -1 16 4 6 8 54 9 107 1 52 7 120 13 150 10 50 18 62 88 128 42 39 80
72 85 72 4 0 8 7 8 15 0 8 7 15 15 15 9 0 20 10 25 23 5 12 9 18 9 14 1 -4 22
13 48 38 26 25 53 45 59 45 6 0 14 9 17 21 3 12 10 18 16 14 6 -3 11 -1 11 4
0 23 38 10 73 -24z m-3203 -550 c0 -8 5 -15 10 -15 9 0 45 -30 117 -97 13 -13
26 -23 28 -23 12 0 93 -69 88 -74 -4 -3 0 -6 8 -6 8 0 28 -13 44 -28 17 -16
44 -37 60 -47 17 -11 34 -25 38 -32 4 -7 13 -13 19 -13 6 0 20 -11 32 -23 11
-13 39 -37 61 -53 22 -16 44 -35 48 -42 5 -7 12 -10 17 -7 5 3 14 -4 20 -15 6
-11 17 -20 25 -20 8 0 19 -9 25 -20 6 -11 17 -20 25 -20 8 0 15 -4 15 -9 0 -5
16 -16 36 -26 19 -9 38 -23 41 -31 3 -8 10 -14 15 -14 6 0 32 -18 58 -40 26
-22 52 -40 56 -40 5 0 29 -18 53 -40 24 -22 50 -40 57 -40 8 0 14 -6 14 -13 0
-18 -26 -52 -39 -52 -11 0 -39 -18 -81 -52 -15 -13 -33 -23 -38 -23 -6 0 -15
-8 -21 -17 -5 -10 -11 -16 -13 -15 -5 6 -58 -21 -58 -30 0 -5 -11 -13 -24 -18
-14 -5 -47 -24 -74 -43 -26 -19 -58 -37 -69 -41 -12 -4 -24 -13 -27 -21 -3 -8
-11 -15 -18 -15 -7 0 -33 -13 -57 -29 -25 -17 -48 -28 -53 -25 -4 3 -8 1 -8
-4 0 -9 -84 -66 -98 -67 -8 -1 -72 -39 -87 -52 -20 -18 -75 -42 -68 -30 4 8 1
7 -9 -1 -21 -17 -26 -7 -30 61 -1 31 -6 57 -9 57 -10 0 -26 80 -32 166 -3 28
-7 56 -10 61 -8 13 -18 60 -23 113 -2 25 -6 68 -9 95 -4 28 -8 62 -9 76 -2 15
-7 32 -11 39 -5 7 -9 31 -11 54 -2 23 -6 79 -9 126 -10 138 -17 190 -24 190
-4 0 -7 30 -8 68 0 37 -1 92 -3 122 -3 86 -1 110 10 110 6 0 10 -7 10 -15z
m2495 -40 c0 -11 -3 -31 -8 -45 -5 -14 -10 -81 -12 -150 -2 -69 -4 -125 -5
-125 -1 0 -3 -23 -5 -52 -2 -29 -7 -58 -11 -65 -9 -15 -13 -41 -16 -110 -1
-27 -6 -48 -11 -48 -6 0 -6 -5 0 -12 5 -7 8 -22 7 -33 -2 -11 -5 -39 -8 -63
-3 -23 -10 -51 -16 -61 -5 -11 -12 -55 -15 -98 -6 -90 -11 -122 -25 -157 -5
-13 -12 -46 -15 -73 -11 -98 -14 -113 -26 -135 -7 -13 -11 -23 -9 -23 2 0 0
-10 -4 -22 -8 -24 -26 -32 -26 -11 0 6 -3 8 -6 5 -8 -8 -64 24 -64 36 0 4 -4
6 -10 2 -5 -3 -18 3 -29 14 -10 10 -29 22 -41 26 -24 8 -111 64 -121 78 -3 5
-9 7 -12 5 -7 -4 -82 41 -106 63 -10 8 -22 14 -28 12 -6 -2 -18 6 -26 17 -8
12 -22 22 -30 24 -9 1 -24 9 -34 18 -10 8 -33 23 -50 34 -18 10 -33 22 -33 27
0 5 -7 7 -15 3 -8 -3 -20 3 -27 12 -17 22 -76 63 -95 66 -9 2 -21 10 -28 19
-7 9 -16 17 -21 17 -15 1 -54 38 -54 52 0 7 28 31 62 53 33 21 70 47 82 57 65
55 82 68 92 68 7 0 14 7 18 15 3 8 11 15 18 15 8 0 21 8 29 18 22 24 59 53 59
46 0 -3 6 1 14 8 8 7 26 22 42 33 15 11 38 29 51 41 25 23 44 38 115 88 26 18
45 36 41 40 -3 3 1 6 9 6 9 0 22 7 29 17 8 9 43 38 79 65 36 26 77 58 91 71
14 12 45 38 68 57 24 19 55 45 70 57 32 28 66 26 66 -2z m-1230 -931 c14 -9
25 -13 25 -9 0 5 8 -1 18 -11 9 -11 29 -25 45 -33 15 -8 27 -18 27 -23 0 -4 6
-8 13 -8 8 0 22 -9 32 -20 10 -11 24 -20 30 -20 7 0 18 -7 25 -15 7 -9 28 -23
46 -31 19 -9 34 -20 34 -25 0 -5 6 -9 13 -9 8 0 22 -9 32 -20 10 -11 26 -20
36 -20 10 0 24 -9 32 -20 8 -11 16 -18 19 -15 3 3 17 -6 32 -20 15 -14 33 -25
40 -25 7 0 21 -8 32 -18 10 -9 30 -23 44 -30 45 -23 70 -38 88 -55 10 -10 26
-17 34 -17 9 0 21 -7 28 -16 8 -8 27 -22 44 -30 47 -22 101 -55 104 -65 2 -5
14 -9 27 -9 13 0 28 -6 32 -14 4 -7 18 -18 30 -25 15 -7 21 -18 18 -33 -2 -13
-6 -37 -8 -55 -3 -17 -8 -37 -13 -44 -5 -8 -3 -10 5 -4 7 4 4 -10 -7 -31 -22
-45 -36 -93 -33 -112 1 -8 -5 -24 -13 -37 -8 -13 -17 -35 -20 -49 -7 -40 -17
-70 -29 -84 -6 -7 -12 -30 -14 -50 -2 -20 -7 -39 -12 -42 -14 -9 -27 -47 -30
-82 0 -9 -8 -23 -16 -32 -13 -13 -22 -39 -24 -73 -1 -6 -8 -18 -16 -27 -8 -8
-17 -25 -19 -38 -3 -13 -5 -24 -5 -25 -1 -2 -1 -6 0 -9 0 -4 -4 -10 -9 -13 -5
-3 -26 -42 -47 -86 -21 -44 -42 -82 -46 -85 -4 -3 -11 -18 -14 -33 -4 -15 -11
-27 -16 -27 -5 0 -13 -10 -18 -23 -9 -23 -50 -90 -71 -114 -5 -7 -10 -17 -10
-22 0 -6 -9 -16 -20 -23 -11 -7 -20 -18 -20 -25 0 -7 -9 -17 -21 -23 -11 -7
-18 -14 -15 -17 3 -3 -4 -14 -16 -24 -11 -11 -18 -19 -13 -19 4 0 -5 -10 -21
-22 -16 -13 -37 -33 -47 -45 -10 -13 -23 -23 -28 -23 -6 0 -21 -12 -34 -26
-14 -15 -25 -24 -25 -20 0 4 -10 -2 -22 -14 -12 -11 -25 -21 -30 -21 -20 -3
-25 -6 -52 -24 -33 -22 -47 -24 -175 -25 -51 -1 -98 3 -104 9 -5 5 -16 7 -23
4 -8 -3 -14 -1 -14 5 0 6 -15 15 -33 21 -19 7 -43 19 -53 29 -11 9 -25 18 -32
20 -20 4 -182 166 -182 181 0 8 -3 11 -7 8 -3 -4 -24 21 -47 56 -22 34 -46 67
-52 72 -7 6 -14 19 -16 30 -2 11 -10 25 -19 32 -9 7 -22 26 -29 43 -7 16 -16
30 -21 30 -5 0 -9 9 -9 20 0 12 -9 30 -20 42 -10 12 -17 25 -14 30 3 4 1 8 -5
8 -6 0 -8 6 -5 13 2 7 -5 22 -16 34 -11 12 -20 27 -20 33 0 6 -8 28 -19 48
-38 76 -60 128 -66 159 -3 17 -13 37 -21 44 -8 6 -14 23 -14 38 0 14 -8 40
-18 56 -10 17 -19 43 -20 58 -1 15 -9 42 -19 60 -9 18 -20 48 -23 67 -11 54
-14 65 -23 71 -4 3 -12 32 -17 64 -5 31 -16 68 -25 81 -8 13 -14 24 -11 24 2
0 0 16 -4 35 -8 36 10 72 31 60 5 -4 9 -2 9 4 0 6 14 17 30 26 17 9 30 12 30
8 0 -4 7 3 16 15 8 12 22 22 30 22 8 0 29 10 47 22 70 47 83 55 104 62 12 4
24 13 27 21 3 8 14 15 24 15 11 0 31 11 46 25 15 14 34 25 42 25 7 0 14 4 14
9 0 5 14 14 30 20 17 5 30 14 30 20 0 5 16 15 35 21 19 6 35 16 35 21 0 5 7 9
15 9 8 0 15 5 15 12 0 6 3 8 7 5 3 -4 12 2 20 13 8 11 21 20 29 20 8 0 39 18
69 40 30 22 58 40 62 40 5 0 20 11 35 24 14 14 28 23 30 20 3 -2 13 5 23 16
10 11 22 20 27 20 4 0 27 14 50 30 48 35 51 35 83 14z"/>
<path d="M4916 6084 c-11 -8 -16 -14 -12 -14 5 0 -7 -12 -26 -28 -19 -15 -34
-35 -32 -44 1 -10 -4 -22 -12 -29 -8 -6 -11 -15 -8 -20 3 -5 1 -9 -4 -9 -13 0
-8 -112 7 -138 7 -13 14 -33 17 -45 2 -12 32 -48 66 -80 l63 -59 -42 5 c-23 3
-46 0 -52 -6 -6 -6 -11 -7 -11 -1 0 5 -44 8 -107 6 -131 -3 -133 -3 -133 -13
0 -4 -13 -16 -30 -26 -22 -13 -30 -25 -30 -45 0 -15 -4 -28 -8 -28 -12 0 -12
-9 -15 -377 -1 -207 1 -343 7 -343 5 0 7 -3 3 -6 -3 -4 0 -19 8 -34 18 -34 66
-53 101 -40 33 13 57 37 49 50 -3 5 -2 10 3 10 5 0 9 125 9 290 0 160 3 293 6
297 4 3 12 1 19 -5 10 -8 13 -154 12 -709 l-1 -698 32 -31 c27 -28 37 -32 80
-30 46 1 51 4 67 36 9 19 21 40 26 46 5 6 9 184 10 410 0 219 1 405 1 412 1 8
9 12 18 10 17 -3 18 -31 19 -403 1 -364 2 -404 19 -445 22 -53 36 -64 91 -67
32 -2 49 4 70 22 l29 25 2 706 c2 388 5 710 8 714 3 5 11 7 18 4 9 -3 12 -72
10 -282 0 -177 3 -282 9 -289 6 -7 7 -13 3 -13 -4 0 -2 -7 5 -15 7 -8 9 -15 4
-15 -10 -1 21 -20 33 -21 5 -1 16 -5 26 -10 9 -6 23 -6 30 -2 12 7 17 9 36 12
9 1 26 49 23 64 -1 4 1 7 6 7 6 0 9 691 2 698 -4 3 -7 20 -9 40 -2 28 -61 86
-90 88 -14 1 -26 3 -26 4 0 6 -223 4 -236 -2 -9 -4 -24 -2 -33 5 -16 12 -16
14 9 32 46 34 87 77 90 94 2 9 4 17 5 19 2 1 3 5 5 10 1 4 7 20 14 37 15 37
12 125 -6 143 -7 7 -13 22 -13 31 0 10 -7 24 -15 31 -8 7 -12 17 -8 24 3 6 3
8 -1 4 -5 -4 -18 2 -30 13 -11 12 -28 24 -36 28 -26 14 -124 10 -144 -5z"/>
<path d="M9457 9005 c-39 -13 -107 -72 -107 -92 0 -8 -7 -27 -15 -43 -19 -36
-25 -87 -14 -120 23 -73 41 -111 61 -133 32 -34 89 -67 117 -67 24 0 125 50
116 58 -2 2 5 12 15 21 11 9 21 27 22 41 2 13 10 32 18 42 18 22 22 114 7 143
-6 11 -10 23 -9 28 1 4 -2 7 -7 7 -5 0 -11 14 -14 30 -4 19 -13 30 -23 30 -10
0 -14 3 -11 7 11 10 -54 50 -90 55 -18 2 -48 -1 -66 -7z"/>
<path d="M448 8971 c-41 -21 -68 -44 -68 -60 0 -5 -9 -16 -20 -24 -12 -8 -20
-18 -19 -23 1 -5 1 -11 -1 -14 -6 -16 -4 -160 3 -160 4 0 7 -9 7 -20 0 -11 5
-20 10 -20 6 0 10 -6 10 -14 0 -21 63 -87 85 -90 10 -2 21 -8 23 -14 2 -8 -28
-11 -105 -9 -192 5 -257 -20 -302 -118 -10 -22 -15 -733 -5 -759 3 -9 12 -16
19 -16 7 0 15 -9 18 -20 8 -30 73 -27 109 4 l27 24 1 297 c0 164 3 301 6 306
20 33 38 -70 20 -116 -3 -8 -2 -15 2 -15 4 0 7 -29 7 -65 0 -36 -4 -65 -8 -65
-5 0 -5 -5 -1 -11 9 -16 11 -149 1 -149 -5 0 -5 -5 -1 -11 3 -6 5 -57 4 -113
-2 -91 -3 -780 -1 -832 1 -12 19 -40 41 -62 32 -32 48 -40 73 -39 37 2 96 56
98 90 1 12 2 201 3 419 1 218 4 399 7 402 2 3 14 3 25 0 20 -5 20 -12 19 -407
0 -221 3 -415 8 -430 18 -54 126 -100 141 -60 3 7 11 13 19 13 7 0 22 15 32
33 19 31 20 53 20 494 0 255 -4 463 -8 463 -5 0 -5 5 -2 11 10 15 11 229 2
229 -5 0 -5 5 -2 10 4 6 8 57 8 113 3 153 21 128 27 -36 3 -76 3 -144 0 -152
-3 -8 -3 -81 0 -164 5 -141 6 -151 29 -175 34 -36 82 -35 120 2 l28 27 1 260
c0 143 2 262 3 265 1 3 0 10 -1 15 -1 6 -2 56 -2 112 -1 94 -3 104 -29 147
-16 25 -36 47 -44 47 -24 2 -28 4 -55 19 -27 15 -248 22 -257 8 -7 -12 -23 1
-23 18 0 8 8 14 18 14 22 0 74 55 95 101 15 33 23 108 19 184 -2 28 -15 49
-62 105 -19 21 -84 50 -114 50 -11 -1 -38 -9 -58 -19z"/>
<path d="M9158 8511 c-18 -8 -34 -19 -36 -23 -2 -4 -8 -8 -14 -8 -17 0 -37
-33 -38 -62 0 -15 -4 -29 -9 -32 -11 -7 -12 -716 -1 -716 5 0 7 -6 4 -14 -8
-22 53 -67 85 -62 14 2 32 5 39 5 6 1 12 6 12 12 0 6 7 17 15 26 8 8 13 19 10
24 -4 5 -2 9 2 9 5 0 9 124 8 276 0 246 2 277 16 285 16 8 17 -45 16 -697 0
-691 0 -706 20 -725 11 -11 29 -21 41 -22 12 -1 22 -5 22 -9 0 -9 36 -5 46 5
4 4 15 7 25 7 11 0 26 17 41 48 23 47 23 48 23 440 -1 294 2 396 11 403 9 7
14 5 18 -8 2 -10 4 -184 4 -388 0 -240 3 -384 10 -410 15 -53 39 -85 63 -85
10 0 19 -4 19 -8 0 -27 119 18 121 45 1 10 3 329 4 708 2 380 3 693 4 697 1 4
8 5 16 2 13 -5 15 -46 15 -285 0 -283 2 -298 38 -338 8 -7 25 -15 40 -17 29
-3 85 22 77 36 -3 4 0 10 7 12 6 2 13 13 15 24 9 40 9 680 0 704 -5 14 -11 39
-14 55 -6 35 -22 52 -78 81 -38 19 -57 20 -352 21 -264 0 -317 -2 -345 -16z"/>
<path d="M9420 3072 c-49 -4 -82 -29 -122 -92 -27 -41 -28 -48 -28 -125 0 -75
1 -82 28 -124 11 -19 19 -38 16 -43 -3 -4 -1 -8 3 -8 5 0 21 -12 36 -26 34
-31 25 -48 -24 -46 -18 0 -38 -2 -43 -6 -6 -4 -47 -7 -91 -8 -44 -1 -87 -2
-96 -3 -16 -1 -69 -44 -69 -56 0 -3 -8 -18 -17 -32 -16 -25 -18 -62 -18 -405
-1 -207 1 -375 4 -373 2 3 12 -4 21 -15 19 -22 95 -36 105 -20 4 6 10 8 15 5
4 -3 13 2 20 11 10 11 13 88 13 320 0 272 1 305 16 302 15 -3 25 -68 9 -68 -4
0 -5 -7 -2 -15 10 -24 10 -186 1 -192 -4 -3 -3 -11 4 -19 9 -11 9 -14 0 -14
-8 0 -9 -5 -1 -19 7 -14 7 -22 0 -26 -8 -5 -7 -11 1 -21 7 -8 7 -14 1 -14 -6
0 -7 -13 -3 -32 3 -18 5 -69 3 -113 -1 -44 -4 -249 -5 -455 -2 -368 -2 -376
19 -417 30 -58 43 -68 84 -67 55 2 56 3 86 31 l29 27 1 420 c1 232 2 424 3
427 2 12 41 17 47 7 4 -6 6 -198 6 -428 l0 -417 27 -32 c21 -24 38 -33 66 -35
52 -5 70 2 85 30 7 13 17 21 22 18 4 -3 9 1 9 8 1 7 3 27 4 43 2 17 3 333 4
703 1 505 4 673 13 670 8 -3 11 -81 11 -284 0 -263 6 -334 29 -334 5 0 6 -5 3
-10 -6 -10 16 -14 65 -12 45 2 69 12 75 31 4 14 9 665 6 771 -1 9 -18 35 -38
58 l-38 42 -96 3 c-52 2 -99 6 -105 9 -5 3 -26 6 -47 6 -61 2 -78 24 -32 42
14 5 31 22 38 37 6 16 18 33 26 39 11 8 15 37 17 102 2 120 -1 132 -50 186
-45 50 -77 63 -146 58z"/>
<path d="M497 3038 c-16 -16 -40 -50 -54 -76 -22 -41 -25 -56 -21 -124 3 -53
10 -81 21 -93 9 -9 17 -22 17 -28 0 -6 18 -28 41 -49 49 -45 43 -62 -21 -65
-232 -11 -242 -12 -266 -35 -14 -13 -34 -43 -45 -68 -20 -43 -21 -63 -22 -399
l0 -353 24 -30 c30 -36 97 -46 132 -18 22 18 22 22 22 319 1 165 4 303 7 307
17 16 38 -6 33 -33 -5 -30 -6 -500 -1 -570 1 -24 0 -43 -3 -43 -8 0 -4 -651 4
-718 6 -52 39 -101 68 -103 7 0 20 -2 31 -4 43 -8 98 33 100 74 0 17 3 31 7
31 3 0 5 180 5 401 -1 373 0 402 17 410 12 7 19 6 23 -5 3 -7 6 -201 7 -429
l2 -416 23 -21 c12 -11 22 -25 22 -31 0 -6 4 -8 9 -4 5 3 12 1 15 -3 3 -5 23
-8 46 -6 28 2 48 11 69 33 l29 30 0 683 c1 811 -1 728 17 728 13 0 15 -39 15
-294 l0 -295 24 -28 c20 -23 31 -27 71 -26 82 3 78 -19 78 422 0 335 -2 393
-15 413 -33 48 -59 68 -91 69 -35 1 -121 6 -205 13 -29 2 -56 7 -60 10 -9 9
14 42 27 39 6 -2 13 8 17 22 3 14 10 25 15 25 12 0 30 36 34 73 5 44 15 91 21
96 2 2 -1 9 -6 16 -5 7 -11 26 -13 43 -4 36 -25 69 -69 112 -31 29 -37 30
-103 29 -63 -2 -73 -5 -98 -31z"/>
</g>
</svg>
